# xmcd
#
# Track frame offsets: 
#        150
#        17970
#        36599
#        52617
#        71295
#        93596
#        118155
#        137030
#        158895
#        179974
#        200464
#        221952
#        241294
#        261103
#        286149
#
# Disc length: 4073 seconds
#
# Revision: 0
# Processed by: cddbd v1.5.2PL0 Copyright (c) Steve Scherf et al.
# Submitted via: ExactAudioCopy v0.95a5
#
DISCID=e60fe70f
DTITLE=Celine Dion 席琳迪翁 - 最愛精選輯
DYEAR=2003
DGENRE=Pop
TTITLE0=01 I drove all night 為愛奔馳
TTITLE1=02 Have you ever been in love 你可曾愛過？
TTITLE2=03 I'm alive 活力四射
TTITLE3=04 New day has come 真愛來臨
TTITLE4=05 All by myself 我心深處
TTITLE5=06 To love you more 深深愛你
TTITLE6=07 Immortality - With Bee Gees 不滅的愛
TTITLE7=08 I'm your angel - With R.Kelly 你的天使
TTITLE8=09 My heart will go on 愛無止境
TTITLE9=10 Because you loved you 因為你愛過我
TTITLE10=11 Tell him 傾訴
TTITLE11=12 Falling into you 真愛
TTITLE12=13 Je sais pas 無法知道
TTITLE13=14 The prayer - 2002 Version 祈禱
TTITLE14=15 Call the man 呼喚愛人
EXTD=
EXTT0=
EXTT1=
EXTT2=
EXTT3=
EXTT4=
EXTT5=
EXTT6=
EXTT7=
EXTT8=
EXTT9=
EXTT10=
EXTT11=
EXTT12=
EXTT13=
EXTT14=
PLAYORDER=
